<svg width="130" height="130" viewBox="0 0 130 130" fill="none" xmlns="http://www.w3.org/2000/svg">
<path d="M0 1.60242V0C41.4214 0 75 33.5786 75 75C34.105 75 0.852905 42.2839 0 1.60242Z" fill="white"/>
<path d="M1.60242 130L0 130C-1.81059e-06 88.5786 33.5786 55 75 55C75 95.895 42.2839 129.147 1.60242 130Z" fill="white"/>
<path d="M130 128.398L130 130C88.5786 130 55 96.4214 55 55C95.895 55 129.147 87.7161 130 128.398Z" fill="white"/>
<path d="M128.398 -7.00439e-08L130 0C130 41.4214 96.4214 75 55 75C55 34.105 87.7161 0.852903 128.398 -7.00439e-08Z" fill="white"/>
</svg>
